<svg xmlns="http://www.w3.org/2000/svg" width="15.173" height="13.46" viewBox="0 0 15.173 13.46"><path d="M22.928,47.342h-2.2v-.734a.245.245,0,0,0-.245-.245H17.544a.245.245,0,0,0-.245.245v.734H10.447V41.713a1.224,1.224,0,0,1,2.447,0v.51a1.47,1.47,0,0,0-1.224,1.448v.245a.245.245,0,0,0,.245.245h2.447a.245.245,0,0,0,.245-.245v-.245a1.47,1.47,0,0,0-1.224-1.448v-.51a1.713,1.713,0,0,0-3.426,0v5.629H8.245A.245.245,0,0,0,8,47.586v.734a.245.245,0,0,0,.245.245h.734v1.713a2.7,2.7,0,0,0,1.958,2.59v.347a.245.245,0,0,0,.489,0v-.256c.081.007.162.011.245.011H19.5c.083,0,.164,0,.245-.011v.256a.245.245,0,0,0,.489,0v-.347a2.7,2.7,0,0,0,1.958-2.59V48.565h.734a.245.245,0,0,0,.245-.245v-.734A.245.245,0,0,0,22.928,47.342Zm-8.81-3.671H12.16a.979.979,0,0,1,1.958,0Zm3.671,3.181h2.447v4.16H17.789Zm-9.3,1.224v-.245H17.3v.245Zm13.215,2.2a2.205,2.205,0,0,1-2.2,2.2H11.671a2.205,2.205,0,0,1-2.2-2.2V48.565H17.3v2.692a.245.245,0,0,0,.245.245h2.937a.245.245,0,0,0,.245-.245V48.565H21.7Zm.979-2.2H20.726v-.245h1.958Z" transform="translate(-8 -40)"/></svg>