<svg xmlns="http://www.w3.org/2000/svg" width="14.7" height="12.74" viewBox="0 0 14.7 12.74"><path d="M14.455,39.35H14.21v-.735a1.225,1.225,0,0,0-.735-1.121V33.715a.245.245,0,0,0-.147-.224.97.97,0,0,0,.147-.511.98.98,0,1,0-1.96,0,.97.97,0,0,0,.136.49h-8.6a.97.97,0,0,0,.136-.49.98.98,0,1,0-1.96,0,.97.97,0,0,0,.147.511.245.245,0,0,0-.147.224v3.779A1.225,1.225,0,0,0,.49,38.615v.735H.245A.245.245,0,0,0,0,39.595v3.43a.245.245,0,0,0,.245.245H.49v1.225a.245.245,0,0,0,.245.245h.98a.245.245,0,0,0,.245-.245V43.27H12.74v1.225a.245.245,0,0,0,.245.245h.98a.245.245,0,0,0,.245-.245V43.27h.245a.245.245,0,0,0,.245-.245v-3.43A.245.245,0,0,0,14.455,39.35Zm-1.96-6.86a.49.49,0,1,1-.49.49A.49.49,0,0,1,12.495,32.49Zm-10.29,0a.49.49,0,1,1-.49.49A.49.49,0,0,1,2.2,32.49Zm-.49,1.47h11.27v3.43H12a1.212,1.212,0,0,0,.251-.735v-.49a1.226,1.226,0,0,0-1.225-1.225H9.065A1.226,1.226,0,0,0,7.84,36.165v.49a1.212,1.212,0,0,0,.251.735H6.609a1.212,1.212,0,0,0,.251-.735v-.49A1.226,1.226,0,0,0,5.635,34.94H3.675A1.226,1.226,0,0,0,2.45,36.165v.49a1.212,1.212,0,0,0,.251.735H1.715Zm10.045,2.2v.49a.735.735,0,0,1-.735.735H9.065a.735.735,0,0,1-.735-.735v-.49a.735.735,0,0,1,.735-.735h1.96A.735.735,0,0,1,11.76,36.165Zm-5.39,0v.49a.735.735,0,0,1-.735.735H3.675a.735.735,0,0,1-.735-.735v-.49a.735.735,0,0,1,.735-.735h1.96A.735.735,0,0,1,6.37,36.165ZM.98,38.615a.735.735,0,0,1,.735-.735h11.27a.735.735,0,0,1,.735.735v.735H.98Zm.49,5.635H.98v-.98h.49Zm12.25,0h-.49v-.98h.49Zm.49-1.47H.49V39.84H14.21Z" transform="translate(0 -32)"/></svg>